<svg width="217" height="58" viewBox="0 0 217 58" fill="none" xmlns="http://www.w3.org/2000/svg">
<path d="M56.2793 33.0527C56.2793 35.0742 55.5273 36.6221 54.0234 37.6963C52.5293 38.7607 50.332 39.293 47.4316 39.293C44.7852 39.293 42.71 38.8242 41.2061 37.8867C39.7021 36.9492 38.7354 35.5283 38.3057 33.624L42.4805 32.9355C42.7637 34.0293 43.3154 34.8252 44.1357 35.3232C44.9561 35.8115 46.0938 36.0557 47.5488 36.0557C50.5664 36.0557 52.0752 35.1377 52.0752 33.3018C52.0752 32.7158 51.8994 32.2324 51.5479 31.8516C51.2061 31.4707 50.7178 31.1533 50.083 30.8994C49.458 30.6455 48.252 30.3379 46.4648 29.9766C44.9219 29.6152 43.8477 29.3271 43.2422 29.1123C42.6367 28.8877 42.0898 28.6289 41.6016 28.3359C41.1133 28.0332 40.6982 27.6719 40.3564 27.252C40.0146 26.832 39.7461 26.3389 39.5508 25.7725C39.3652 25.2061 39.2725 24.5566 39.2725 23.8242C39.2725 21.959 39.9707 20.5332 41.3672 19.5469C42.7734 18.5508 44.8145 18.0527 47.4902 18.0527C50.0488 18.0527 51.9678 18.4531 53.2471 19.2539C54.5361 20.0547 55.3662 21.3779 55.7373 23.2236L51.5479 23.7949C51.333 22.9062 50.8936 22.2373 50.2295 21.7881C49.5752 21.3389 48.6328 21.1143 47.4023 21.1143C44.7852 21.1143 43.4766 21.9346 43.4766 23.5752C43.4766 24.1123 43.6133 24.5518 43.8867 24.8936C44.1699 25.2354 44.585 25.5283 45.1318 25.7725C45.6787 26.0068 46.7871 26.3047 48.457 26.666C50.4395 27.0859 51.8555 27.4766 52.7051 27.8379C53.5645 28.1895 54.2432 28.6045 54.7412 29.083C55.2393 29.5518 55.6201 30.1182 55.8838 30.7822C56.1475 31.4365 56.2793 32.1934 56.2793 33.0527ZM74.6045 31.0605C74.6045 33.6289 73.8916 35.6455 72.4658 37.1104C71.04 38.5654 69.0674 39.293 66.5479 39.293C64.0771 39.293 62.1387 38.5605 60.7324 37.0957C59.3262 35.6309 58.623 33.6191 58.623 31.0605C58.623 28.5117 59.3262 26.5098 60.7324 25.0547C62.1387 23.5898 64.1064 22.8574 66.6357 22.8574C69.2236 22.8574 71.1963 23.5654 72.5537 24.9814C73.9209 26.3877 74.6045 28.4141 74.6045 31.0605ZM70.2979 31.0605C70.2979 29.1758 69.9902 27.8086 69.375 26.959C68.7598 26.1094 67.8662 25.6846 66.6943 25.6846C64.1943 25.6846 62.9443 27.4766 62.9443 31.0605C62.9443 32.8281 63.2471 34.1758 63.8525 35.1035C64.4678 36.0215 65.3516 36.4805 66.5039 36.4805C69.0332 36.4805 70.2979 34.6738 70.2979 31.0605ZM81.7676 23.1504V32.042C81.7676 34.8252 82.7051 36.2168 84.5801 36.2168C85.5762 36.2168 86.377 35.792 86.9824 34.9424C87.5977 34.083 87.9053 32.9844 87.9053 31.6465V23.1504H92.0215V35.4551C92.0215 36.8027 92.0605 37.9844 92.1387 39H88.2129C88.0957 37.5938 88.0371 36.5439 88.0371 35.8506H87.9639C87.417 37.0518 86.7188 37.9258 85.8691 38.4727C85.0293 39.0195 84.0283 39.293 82.8662 39.293C81.1865 39.293 79.8975 38.7803 78.999 37.7549C78.1006 36.7197 77.6514 35.2061 77.6514 33.2139V23.1504H81.7676ZM106.494 39V30.1084C106.494 27.3252 105.552 25.9336 103.667 25.9336C102.671 25.9336 101.865 26.3633 101.25 27.2227C100.645 28.0723 100.342 29.166 100.342 30.5039V39H96.2256V26.6953C96.2256 25.8457 96.2109 25.1523 96.1816 24.6152C96.1621 24.0684 96.1377 23.5801 96.1084 23.1504H100.034C100.063 23.3359 100.103 23.834 100.151 24.6445C100.2 25.4453 100.225 25.9971 100.225 26.2998H100.283C100.84 25.0889 101.538 24.21 102.378 23.6631C103.218 23.1162 104.219 22.8428 105.381 22.8428C107.061 22.8428 108.35 23.3604 109.248 24.3955C110.146 25.4307 110.596 26.9443 110.596 28.9365V39H106.494ZM124.834 39C124.795 38.8535 124.746 38.4873 124.688 37.9014C124.639 37.3057 124.614 36.8125 124.614 36.4219H124.556C123.667 38.3359 121.978 39.293 119.487 39.293C117.642 39.293 116.216 38.5752 115.21 37.1396C114.204 35.6943 113.701 33.6777 113.701 31.0898C113.701 28.4629 114.229 26.4365 115.283 25.0107C116.348 23.5752 117.852 22.8574 119.795 22.8574C120.918 22.8574 121.885 23.0918 122.695 23.5605C123.516 24.0293 124.146 24.7275 124.585 25.6553H124.614L124.585 23.0479V17.2617H128.701V35.543C128.701 36.5195 128.74 37.6719 128.818 39H124.834ZM124.644 30.9873C124.644 29.2783 124.355 27.9648 123.779 27.0469C123.213 26.1191 122.373 25.6553 121.26 25.6553C120.156 25.6553 119.336 26.1045 118.799 27.0029C118.262 27.8916 117.993 29.2539 117.993 31.0898C117.993 34.6836 119.072 36.4805 121.23 36.4805C122.314 36.4805 123.154 36.0068 123.75 35.0596C124.346 34.1025 124.644 32.7451 124.644 30.9873ZM149.648 33.0527C149.648 35.0742 148.896 36.6221 147.393 37.6963C145.898 38.7607 143.701 39.293 140.801 39.293C138.154 39.293 136.079 38.8242 134.575 37.8867C133.071 36.9492 132.104 35.5283 131.675 33.624L135.85 32.9355C136.133 34.0293 136.685 34.8252 137.505 35.3232C138.325 35.8115 139.463 36.0557 140.918 36.0557C143.936 36.0557 145.444 35.1377 145.444 33.3018C145.444 32.7158 145.269 32.2324 144.917 31.8516C144.575 31.4707 144.087 31.1533 143.452 30.8994C142.827 30.6455 141.621 30.3379 139.834 29.9766C138.291 29.6152 137.217 29.3271 136.611 29.1123C136.006 28.8877 135.459 28.6289 134.971 28.3359C134.482 28.0332 134.067 27.6719 133.726 27.252C133.384 26.832 133.115 26.3389 132.92 25.7725C132.734 25.2061 132.642 24.5566 132.642 23.8242C132.642 21.959 133.34 20.5332 134.736 19.5469C136.143 18.5508 138.184 18.0527 140.859 18.0527C143.418 18.0527 145.337 18.4531 146.616 19.2539C147.905 20.0547 148.735 21.3779 149.106 23.2236L144.917 23.7949C144.702 22.9062 144.263 22.2373 143.599 21.7881C142.944 21.3389 142.002 21.1143 140.771 21.1143C138.154 21.1143 136.846 21.9346 136.846 23.5752C136.846 24.1123 136.982 24.5518 137.256 24.8936C137.539 25.2354 137.954 25.5283 138.501 25.7725C139.048 26.0068 140.156 26.3047 141.826 26.666C143.809 27.0859 145.225 27.4766 146.074 27.8379C146.934 28.1895 147.612 28.6045 148.11 29.083C148.608 29.5518 148.989 30.1182 149.253 30.7822C149.517 31.4365 149.648 32.1934 149.648 33.0527ZM170.054 39H165.703L163.184 29.332C163.066 28.8926 162.837 27.8086 162.495 26.0801L161.733 29.3613L159.185 39H154.834L150.732 23.1504H154.6L157.207 35.2646L157.412 34.1807L157.778 32.4668L160.269 23.1504H164.678L167.109 32.4668C167.246 32.9746 167.446 33.9072 167.71 35.2646L168.12 33.3311L170.405 23.1504H174.214L170.054 39ZM176.265 20.2939V17.2617H180.381V20.2939H176.265ZM176.265 39V23.1504H180.381V39H176.265ZM199.614 31.002C199.614 33.6484 199.082 35.6943 198.018 37.1396C196.963 38.5752 195.469 39.293 193.535 39.293C192.422 39.293 191.45 39.0537 190.62 38.5752C189.8 38.0869 189.17 37.3887 188.73 36.4805H188.643C188.701 36.7734 188.73 37.6621 188.73 39.1465V45.2256H184.614V26.7979C184.614 25.3037 184.575 24.0879 184.497 23.1504H188.496C188.545 23.3262 188.584 23.6729 188.613 24.1904C188.652 24.708 188.672 25.2207 188.672 25.7285H188.73C189.658 23.7852 191.348 22.8135 193.799 22.8135C195.645 22.8135 197.075 23.5264 198.091 24.9521C199.106 26.3682 199.614 28.3848 199.614 31.002ZM195.322 31.002C195.322 27.4473 194.233 25.6699 192.056 25.6699C190.962 25.6699 190.122 26.1484 189.536 27.1055C188.96 28.0625 188.672 29.4004 188.672 31.1191C188.672 32.8281 188.96 34.1514 189.536 35.0889C190.122 36.0166 190.952 36.4805 192.026 36.4805C194.224 36.4805 195.322 34.6543 195.322 31.002ZM209.443 39.293C207.061 39.293 205.229 38.5898 203.95 37.1836C202.671 35.7676 202.031 33.707 202.031 31.002C202.031 28.3848 202.681 26.373 203.979 24.9668C205.278 23.5605 207.119 22.8574 209.502 22.8574C211.777 22.8574 213.516 23.6143 214.717 25.1279C215.918 26.6318 216.519 28.8389 216.519 31.749V31.8662H206.353C206.353 33.4092 206.636 34.5762 207.202 35.3672C207.778 36.1484 208.594 36.5391 209.648 36.5391C211.104 36.5391 212.021 35.9092 212.402 34.6494L216.284 34.9863C215.161 37.8574 212.881 39.293 209.443 39.293ZM209.443 25.4502C208.477 25.4502 207.729 25.7871 207.202 26.4609C206.685 27.1348 206.411 28.0771 206.382 29.2881H212.534C212.456 28.0088 212.148 27.0518 211.611 26.417C211.074 25.7725 210.352 25.4502 209.443 25.4502Z" fill="white"/>
<path fill-rule="evenodd" clip-rule="evenodd" d="M14.1905 26.4686L2.77389 18.8896C2.46435 18.7091 2.10828 18.6244 1.75063 18.6462C1.39299 18.668 1.04982 18.7952 0.764457 19.0119C0.535867 19.1723 0.347769 19.3836 0.215077 19.6293C0.0823853 19.875 0.00874686 20.1482 0 20.4273L0 37.289V37.2955C0 38.689 1.60536 39.5889 2.77389 38.8769L14.1905 31.3437V37.289V37.2934C14.1905 38.689 15.7937 39.5911 16.9644 38.8769L29.7789 30.4198C30.8447 29.7296 30.8447 28.0893 29.7789 27.3969L16.9644 18.8896C16.6547 18.7097 16.2987 18.6253 15.9412 18.6471C15.5837 18.6688 15.2406 18.7958 14.955 19.0119C14.7264 19.1723 14.5383 19.3836 14.4056 19.6293C14.2729 19.875 14.1992 20.1482 14.1905 20.4273V26.4686Z" fill="white"/>
</svg>
